<svg xmlns="http://www.w3.org/2000/svg" width="23" height="23" viewBox="0 0 23 23">
  <path id="Bag" d="M18.763,23H4.237A4.241,4.241,0,0,1,0,18.764L1.643,4.236A4.241,4.241,0,0,1,5.879,0H17.121a4.24,4.24,0,0,1,4.235,4.236L23,18.764A4.241,4.241,0,0,1,18.763,23ZM7.265,4.817a1.735,1.735,0,0,0-1.485.867,1.7,1.7,0,0,0-.014,1.708,6.574,6.574,0,0,0,11.467,0,1.7,1.7,0,0,0-.014-1.709,1.734,1.734,0,0,0-1.484-.867,1.783,1.783,0,0,0-.432.054l-.688.172a12.848,12.848,0,0,1-3.115.384,12.848,12.848,0,0,1-3.115-.384L7.7,4.871A1.783,1.783,0,0,0,7.265,4.817Z" fill="#45434d"/>
</svg>
